<?xml version="1.0" encoding="utf-8"?>
<!-- Generator: Adobe Illustrator 21.1.0, SVG Export Plug-In . SVG Version: 6.00 Build 0)  -->
<svg version="1.1" id="Layer_1" xmlns="http://www.w3.org/2000/svg" xmlns:xlink="http://www.w3.org/1999/xlink" x="0px" y="0px"
	 viewBox="0 0 516 510.2" style="enable-background:new 0 0 516 510.2;" xml:space="preserve">
<style type="text/css">
	.st0{fill:#2C2A7A;}
	.st1{fill:#F6A9C3;}
	.st2{fill:#FFFFFF;}
</style>
<g>
	<path class="st0" d="M450.4,466.7H65.6V59.6c0-9.1,7.4-16.4,16.4-16.4h351.7c9.2,0,16.6,7.5,16.6,16.6v407H450.4z"/>
	<ellipse class="st1" cx="258" cy="260.4" rx="175.7" ry="186.2"/>
	<rect x="91.6" y="74.2" class="st0" width="331.2" height="81.1"/>
	<g>
		<polygon class="st2" points="284.7,214 289.7,-10 230.3,-5.2 238.3,213.3 232.6,213.4 203.3,224.7 205.6,367.4 223.4,367.2 
			221.8,264.7 237.1,264.5 238.8,367 251.4,366.7 249.8,264.3 265.1,264 266.9,366.5 282.7,366.2 281,263.8 296.3,263.6 298,365.9 
			312.7,365.7 310.4,223 		"/>
	</g>
	<ellipse class="st1" cx="70" cy="245.6" rx="45.9" ry="52.2"/>
	<ellipse class="st1" cx="446" cy="245.6" rx="45.9" ry="52.2"/>
</g>
</svg>
