<?xml version="1.0" encoding="utf-8"?>
<!-- Generator: Adobe Illustrator 21.1.0, SVG Export Plug-In . SVG Version: 6.00 Build 0)  -->
<svg version="1.1" id="Layer_1" xmlns="http://www.w3.org/2000/svg" xmlns:xlink="http://www.w3.org/1999/xlink" x="0px" y="0px"
	 viewBox="0 0 612 792" style="enable-background:new 0 0 612 792;" xml:space="preserve">
<style type="text/css">
	.st0{fill:#DE4C9B;}
	.st1{fill:#B3D3EF;}
	.st2{fill:#FBBDA4;}
	.st3{fill:#EC148E;}
	.st4{fill:#2C2A7A;}
	.st5{fill:#F6A9C3;}
	.st6{fill:#FFFFFF;}
	.st7{fill:#A0A3D1;}
	.st8{fill:#BD6FAD;}
	.st9{fill:#70429A;}
	.st10{fill:#BDC2E2;stroke:#FFFFFF;stroke-width:7;stroke-miterlimit:10;}
	.st11{fill:#FFFFFF;stroke:#FFFFFF;stroke-width:0.5;stroke-miterlimit:10;}
</style>
<g>
	<path class="st4" d="M458.1,528.2H123.5v-354c0-7.9,6.4-14.3,14.3-14.3h305.8c8,0,14.4,6.5,14.4,14.4V528.2z"/>
	<ellipse class="st5" cx="290.8" cy="348.8" rx="152.8" ry="161.9"/>
	<rect x="146.1" y="186.9" class="st4" width="288" height="70.5"/>
	<g>
		<polygon class="st6" points="314,308.5 318.4,113.7 266.7,117.9 273.7,307.9 268.7,308 243.2,317.8 245.2,441.9 260.7,441.7 
			259.3,352.6 272.6,352.4 274.1,441.5 285.1,441.3 283.7,352.2 297,352 298.5,441.1 312.3,440.8 310.8,351.8 324.1,351.6 
			325.6,440.6 338.4,440.4 336.4,316.3 		"/>
	</g>
	<ellipse class="st5" cx="127.3" cy="336" rx="39.9" ry="45.4"/>
	<ellipse class="st5" cx="454.3" cy="336" rx="39.9" ry="45.4"/>
</g>
</svg>
